<?xml version="1.0" encoding="UTF-8" standalone="no"?>
<svg xmlns:dc="http://purl.org/dc/elements/1.1/" xmlns:cc="http://creativecommons.org/ns#" xmlns:rdf="http://www.w3.org/1999/02/22-rdf-syntax-ns#" xmlns:svg="http://www.w3.org/2000/svg" xmlns="http://www.w3.org/2000/svg" xmlns:xlink="http://www.w3.org/1999/xlink" id="svg182222" viewBox="0 -0.64843 421.3241 53.6455" height="53.6455px" width="421.3241px" version="1.1">
  <metadata id="metadata182228">
    <rdf:rdf>
      <cc:work rdf:about="">
        <dc:format>image/svg+xml</dc:format>
        <dc:type rdf:resource="http://purl.org/dc/dcmitype/StillImage"></dc:type>
      </cc:work>
    </rdf:rdf>
  </metadata>
  <defs id="defs182226"></defs>
  <linearGradient spreadMethod="pad" y2="30%" x2="-10%" y1="120%" x1="30%" id="3d_gradient2-logo-ad177da6-2e8c-4e63-bb3b-749fc2cd077f">
    <stop id="stop182203" stop-opacity="1" stop-color="#ffffff" offset="0%"></stop>
    <stop id="stop182205" stop-opacity="1" stop-color="#000000" offset="100%"></stop>
  </linearGradient>
  <linearGradient gradientTransform="rotate(-30)" spreadMethod="pad" y2="30%" x2="-10%" y1="120%" x1="30%" id="3d_gradient3-logo-ad177da6-2e8c-4e63-bb3b-749fc2cd077f">
    <stop id="stop182208" stop-opacity="1" stop-color="#ffffff" offset="0%"></stop>
    <stop id="stop182210" stop-opacity="1" stop-color="#cccccc" offset="50%"></stop>
    <stop id="stop182212" stop-opacity="1" stop-color="#000000" offset="100%"></stop>
  </linearGradient>
  <g id="logo-group">
    <image xlink:href="" id="container" style="display: none;" x="272" y="144" width="480" height="480" transform="translate(0 0)"></image>
    <g id="logo-center" transform="translate(0 0)">
      <image xlink:href="" id="icon_container" style="display: none;" x="0" y="0"></image>
      <g id="slogan" style="font-style:normal;font-weight:400;font-size:32px;line-height:1;font-family:'Nunito Sans';font-variant-ligatures:none;text-align:center;text-anchor:middle" transform="translate(0 0)"></g>
      <g id="title" style="font-style:normal;font-weight:400;font-size:72px;line-height:1;font-family:'Brandmark Dots 1 Color';font-variant-ligatures:normal;text-align:center;text-anchor:middle" transform="translate(0 0)">
        <g id="path182231" aria-label="S" transform="translate(0 0) translate(0 0) scale(1) translate(-320.28031 51.696)"> <path class="c3" d="M90.67529,115.04073c0,2.66406-2.16016,4.75293-4.82422,4.75293 c-2.59277,0-4.75293-2.08887-4.75293-4.75293s2.16016-4.75195,4.75293-4.75195 C88.51514,110.28877,90.67529,112.37666,90.67529,115.04073z" transform="translate(239.18217 -125.18887)" stroke-width="0" stroke-linejoin="miter" stroke-miterlimit="2" fill="#f5abb9" stroke="#f5abb9"></path> <path class="c1" d="M102.48486,126.48994c-3.74512,0-8.78516-1.44043-8.78516-5.1123 c0-3.02441,2.01563-4.68066,4.39258-4.53613c2.44824,0.14355,5.1123,1.00781,7.7041-0.2168 c2.0166-0.93555,3.52832-2.73633,3.52832-5.25586c0-3.02441-3.38379-4.96875-10.72852-7.63281 c-6.625-2.37598-16.56152-5.32813-16.63379-15.19336c0-3.74414,1.44043-7.27246,4.10449-10.00879 c2.30469-2.30469,6.55273-5.04102,13.96973-5.04102c8.42383,0,14.04102,4.46484,15.91309,7.12891 c1.2959,1.72852,1.08008,4.03223-0.21582,5.68848c-1.72852,2.16016-4.32031,1.94434-6.12109,0.36035 c-1.2959-1.15234-4.32031-4.17676-9.86426-4.17676c-4.8252,0-8.20898,2.52051-8.20898,6.04883 c0,2.30371,2.52051,4.24805,10.00879,7.12891c9.2168,3.52832,17.35352,7.41602,17.35352,16.27344 C118.90186,119.07295,113.93311,126.48994,102.48486,126.48994z" transform="translate(239.18217 -125.18887)" stroke-width="0" stroke-linejoin="miter" stroke-miterlimit="2" fill="#5bcffa" stroke="#5bcffa"></path> </g>
        <g id="path182233" aria-label="U" transform="translate(0 0) translate(50.8775 0) scale(1) translate(-366.15781 50.4)"> <path class="c1" d="M121.96191,103.95186c0,10.87305-6.84082,22.53809-21.96191,22.53809 c-13.10547,0-21.96191-9.07324-21.96191-22.53809V79.5417c0-2.5918,2.16016-4.75195,4.75293-4.75195 c2.66406,0,4.82422,2.16016,4.82422,4.75195v24.41016c0,3.95996,1.15137,12.96094,12.38477,12.96094 c9.14453,0,12.38477-6.69629,12.38477-12.96094V93.8708c0-2.5918,2.16016-4.75195,4.8252-4.75195 c2.5918,0,4.75195,2.16016,4.75195,4.75195V103.95186z" transform="translate(288.11972 -125.18975)" stroke-width="0" stroke-linejoin="miter" stroke-miterlimit="2" fill="#5bcffa" stroke="#5bcffa"></path> <path class="c3" d="M112.38477,79.5417c0-2.5918,2.16016-4.75195,4.8252-4.75195c2.5918,0,4.75195,2.16016,4.75195,4.75195 c0,2.66406-2.16016,4.82422-4.75195,4.82422C114.54492,84.36592,112.38477,82.20576,112.38477,79.5417z" transform="translate(288.11972 -125.18975)" stroke-width="0" stroke-linejoin="miter" stroke-miterlimit="2" fill="#f5abb9" stroke="#f5abb9"></path> </g>
        <g id="path182235" aria-label="N" transform="translate(0 0) translate(111.66063 0) scale(1) translate(-421.94094 50.404328)"> <path class="c1" d="M112.31299,108.12862V93.8708c0-2.66406,2.16016-4.82422,4.75195-4.82422 c2.66504,0,4.8252,2.16016,4.8252,4.75293v26.06543c0,1.65625-0.36035,3.09668-1.80078,4.32031 c-1.15234,0.86426-2.95215,1.5127-4.96777,0.50488c-1.08008-0.57617-1.65625-1.22461-2.44824-2.16016L87.68701,91.92647v28.51465 c0,2.59277-2.16016,4.75293-4.82422,4.75293c-2.59277,0-4.75293-2.16016-4.75293-4.75293v-39.8916 c0-1.7998,0.21582-3.95996,2.52051-5.18359c1.7998-1.00879,4.17578-0.86426,6.4082,1.72754L112.31299,108.12862z" transform="translate(343.83108 -125.189493)" stroke-width="0" stroke-linejoin="miter" stroke-miterlimit="2" fill="#5bcffa" stroke="#5bcffa"></path> <path class="c3" d="M121.89014,79.5417c0,2.66406-2.16016,4.75293-4.75293,4.75293c-2.66406,0-4.82422-2.08887-4.82422-4.75293 s2.16016-4.75195,4.82422-4.75195C119.72998,74.78975,121.89014,76.87764,121.89014,79.5417z" transform="translate(343.83108 -125.189493)" stroke-width="0" stroke-linejoin="miter" stroke-miterlimit="2" fill="#f5abb9" stroke="#f5abb9"></path> </g>
        <g id="path182237" aria-label="Y" transform="translate(0 0) translate(169.81717 0) scale(1) translate(-475.09748 50.4)"> <path class="c1" d="M104.82138,105.03194v15.40918c0,2.59277-2.16016,4.75293-4.75195,4.75293 c-2.66406,0-4.8252-2.16016-4.8252-4.75293l0.07227-15.26465L80.62704,82.13448c-1.36816-2.23242-0.71973-5.18457,1.5127-6.625 c2.23242-1.36816,5.18457-0.71973,6.55273,1.51172l11.30469,17.8584l3.60059-5.68848 c1.43945-2.23242,4.3916-2.88086,6.62402-1.5127c2.23242,1.44043,2.88086,4.39258,1.44043,6.625L104.82138,105.03194z" transform="translate(395.184495 -125.18975)" stroke-width="0" stroke-linejoin="miter" stroke-miterlimit="2" fill="#5bcffa" stroke="#5bcffa"></path> <path class="c3" d="M120.08701,79.5417c0,2.66406-2.08789,4.82422-4.75293,4.82422c-2.66406,0-4.75195-2.16016-4.75195-4.82422 c0-2.5918,2.08789-4.75195,4.75195-4.75195C117.99911,74.78975,120.08701,76.94991,120.08701,79.5417z" transform="translate(395.184495 -125.18975)" stroke-width="0" stroke-linejoin="miter" stroke-miterlimit="2" fill="#f5abb9" stroke="#f5abb9"></path> </g>
        <g id="path182239" aria-label="Z" transform="translate(0 0) translate(218.87888 0) scale(1) translate(-519.15919 50.4)"> <path class="c1" d="M101.07981,125.19405H84.59055c-1.80078,0-3.45703-1.00879-4.24902-2.59277 c-0.79199-1.65625-0.64746-3.59961,0.43262-5.04004l24.76953-33.19531H85.95774c-2.66406,0-4.82422-2.16016-4.82422-4.82422 c0-2.5918,2.16016-4.75195,4.82422-4.75195h29.09082c1.80078,0,3.45605,1.00781,4.24902,2.66406 c0.79199,1.58398,0.64746,3.52832-0.43262,4.96875l-24.77051,33.2666h6.98535c2.5918,0,4.75195,2.08789,4.75195,4.75195 C105.83176,123.03389,103.67161,125.19405,101.07981,125.19405z" transform="translate(439.320057 -125.18976)" stroke-width="0" stroke-linejoin="miter" stroke-miterlimit="2" fill="#5bcffa" stroke="#5bcffa"></path> <path class="c3" d="M120.16087,120.44112c0,2.59277-2.16016,4.75293-4.75195,4.75293 c-2.66406,0-4.82422-2.16016-4.82422-4.75293c0-2.66406,2.16016-4.75195,4.82422-4.75195 C118.00071,115.68916,120.16087,117.77705,120.16087,120.44112z" transform="translate(439.320057 -125.18976)" stroke-width="0" stroke-linejoin="miter" stroke-miterlimit="2" fill="#f5abb9" stroke="#f5abb9"></path> </g>
        <g id="path182241" aria-label="N" transform="translate(0 0) translate(275.30125 0) scale(1) translate(-570.58156 50.404328)"> <path class="c1" d="M112.31299,108.12862V93.8708c0-2.66406,2.16016-4.82422,4.75195-4.82422 c2.66504,0,4.8252,2.16016,4.8252,4.75293v26.06543c0,1.65625-0.36035,3.09668-1.80078,4.32031 c-1.15234,0.86426-2.95215,1.5127-4.96777,0.50488c-1.08008-0.57617-1.65625-1.22461-2.44824-2.16016L87.68701,91.92647v28.51465 c0,2.59277-2.16016,4.75293-4.82422,4.75293c-2.59277,0-4.75293-2.16016-4.75293-4.75293v-39.8916 c0-1.7998,0.21582-3.95996,2.52051-5.18359c1.7998-1.00879,4.17578-0.86426,6.4082,1.72754L112.31299,108.12862z" transform="translate(492.4717 -125.189493)" stroke-width="0" stroke-linejoin="miter" stroke-miterlimit="2" fill="#5bcffa" stroke="#5bcffa"></path> <path class="c3" d="M121.89014,79.5417c0,2.66406-2.16016,4.75293-4.75293,4.75293c-2.66406,0-4.82422-2.08887-4.82422-4.75293 s2.16016-4.75195,4.82422-4.75195C119.72998,74.78975,121.89014,76.87764,121.89014,79.5417z" transform="translate(492.4717 -125.189493)" stroke-width="0" stroke-linejoin="miter" stroke-miterlimit="2" fill="#f5abb9" stroke="#f5abb9"></path> </g>
        <g id="path182243" aria-label="E" transform="translate(0 0) translate(336.69188 0) scale(1) translate(-626.97219 50.4)"> <path class="c1" d="M87.75879,125.19405c-2.5918,0-4.75195-2.16016-4.75195-4.75293V79.5417 c0-2.5918,2.16016-4.75195,4.75195-4.75195h9.9375c2.5918,0,4.75195,2.16016,4.75195,4.75195 c0,2.66406-2.16016,4.82422-4.75195,4.82422h-5.1123V95.3835h16.70508c2.66406,0,4.75195,1.94434,4.75195,4.6084 c0,2.5918-2.08789,4.53613-4.75195,4.53613H92.58398v11.08887h19.65723c2.66406,0,4.75195,2.16016,4.75195,4.82422 c0,2.59277-2.08789,4.75293-4.75195,4.75293H87.75879z" transform="translate(543.96535 -125.18975)" stroke-width="0" stroke-linejoin="miter" stroke-miterlimit="2" fill="#5bcffa" stroke="#5bcffa"></path> <path class="c3" d="M112.02539,84.36592c-2.66406,0-4.82422-2.16016-4.82422-4.82422c0-2.5918,2.16016-4.75195,4.82422-4.75195 c2.5918,0,4.75195,2.16016,4.75195,4.75195C116.77734,82.20576,114.61719,84.36592,112.02539,84.36592z" transform="translate(543.96535 -125.18975)" stroke-width="0" stroke-linejoin="miter" stroke-miterlimit="2" fill="#f5abb9" stroke="#f5abb9"></path> </g>
        <g id="path182245" aria-label="T" transform="translate(0 0) translate(381.4325 0) scale(1) translate(-666.71281 50.4)"> <path class="c1" d="M104.75244,120.44112c0,2.59277-2.08789,4.75293-4.75293,4.75293 c-2.66406,0-4.75195-2.16016-4.75195-4.75293v-36.0752H84.80615c-2.5918,0-4.75195-2.16016-4.75195-4.82422 c0-2.5918,2.16016-4.75195,4.75195-4.75195h15.19336c2.88086,0,4.75293,2.16016,4.75293,4.75195V120.44112z" transform="translate(586.65861 -125.18975)" stroke-width="0" stroke-linejoin="miter" stroke-miterlimit="2" fill="#5bcffa" stroke="#5bcffa"></path> <path class="c3" d="M119.9458,79.5417c0,2.66406-2.16016,4.82422-4.75293,4.82422c-2.66406,0-4.82422-2.16016-4.82422-4.82422 c0-2.5918,2.16016-4.75195,4.82422-4.75195C117.78564,74.78975,119.9458,76.94991,119.9458,79.5417z" transform="translate(586.65861 -125.18975)" stroke-width="0" stroke-linejoin="miter" stroke-miterlimit="2" fill="#f5abb9" stroke="#f5abb9"></path> </g>
              </g>
      <image xlink:href="https://app.brandmark.io/nounpreview/72567.png" id="icon" style="display: none;" x="0" y="0"></image>
    </g>
  </g>
</svg>
